<?xml version="1.0" encoding="UTF-8" standalone="no"?>
<svg
   xmlns:dc="http://purl.org/dc/elements/1.1/"
   xmlns:cc="http://creativecommons.org/ns#"
   xmlns:rdf="http://www.w3.org/1999/02/22-rdf-syntax-ns#"
   xmlns:svg="http://www.w3.org/2000/svg"
   xmlns="http://www.w3.org/2000/svg"
   xmlns:xlink="http://www.w3.org/1999/xlink"
   xmlns:sodipodi="http://sodipodi.sourceforge.net/DTD/sodipodi-0.dtd"
   xmlns:inkscape="http://www.inkscape.org/namespaces/inkscape"
   width="187.88602mm"
   height="187.88602mm"
   viewBox="0 0 187.88602 187.88602"
   version="1.1"
   id="svg1439"
   inkscape:version="1.0.1 (3bc2e813f5, 2020-09-07)"
   sodipodi:docname="logo.svg">
  <defs
     id="defs1433" />
  <sodipodi:namedview
     id="base"
     pagecolor="#ffffff"
     bordercolor="#666666"
     borderopacity="1.0"
     inkscape:pageopacity="0.0"
     inkscape:pageshadow="2"
     inkscape:zoom="0.98994949"
     inkscape:cx="488.07389"
     inkscape:cy="306.72946"
     inkscape:document-units="mm"
     inkscape:current-layer="layer1"
     inkscape:document-rotation="0"
     showgrid="false"
     showguides="true"
     inkscape:guide-bbox="true"
     inkscape:window-width="1920"
     inkscape:window-height="1024"
     inkscape:window-x="0"
     inkscape:window-y="0"
     inkscape:window-maximized="1"
     fit-margin-top="0"
     fit-margin-left="0"
     fit-margin-right="0"
     fit-margin-bottom="0">
    <sodipodi:guide
       position="93.812728,185.8938"
       orientation="1,0"
       id="guide2110" />
    <sodipodi:guide
       position="1.99223,93.943113"
       orientation="0,-1"
       id="guide2112" />
  </sodipodi:namedview>
  <metadata
     id="metadata1436">
    <rdf:RDF>
      <cc:Work
         rdf:about="">
        <dc:format>image/svg+xml</dc:format>
        <dc:type
           rdf:resource="http://purl.org/dc/dcmitype/StillImage" />
        <dc:title></dc:title>
      </cc:Work>
    </rdf:RDF>
  </metadata>
  <g
     inkscape:label="Layer 1"
     inkscape:groupmode="layer"
     id="layer1"
     transform="translate(-13.272296,-30.490883)">
    <circle
       style="fill:#ffffff;stroke-width:0.786157;stroke-linecap:round;stroke-linejoin:round;stroke-dasharray:6.28926, 6.28926"
       id="path2150"
       cx="107.08502"
       cy="124.43379"
       r="90.234535" />
    <path
       id="path2683"
       style="fill:#000000;fill-opacity:1;stroke:none;stroke-width:2.98828;stroke-linecap:square;stroke-linejoin:miter;stroke-miterlimit:4;stroke-dasharray:none"
       d="m 107.08502,32.483113 a 91.95081,91.95081 0 0 0 -91.820494,91.950677 91.95081,91.95081 0 0 0 91.950984,91.95093 91.95081,91.95081 0 0 0 91.95068,-91.95093 91.95081,91.95081 0 0 0 -91.95068,-91.950677 91.95081,91.95081 0 0 0 -0.13049,0 z m 0.13049,19.272793 a 72.677837,72.677837 0 0 1 72.67764,72.677884 72.677837,72.677837 0 0 1 -72.67764,72.67789 72.677837,72.677837 0 0 1 -72.677892,-72.67789 72.677837,72.677837 0 0 1 72.677892,-72.677884 z" />
    <g
       id="g2687"
       transform="matrix(0.58102526,0,0,0.56521144,447.58961,-560.16225)"
       style="fill:#ffffff;fill-opacity:1;stroke:none;stroke-width:1.00033;stroke-miterlimit:4;stroke-dasharray:none">
      <path
         id="path2685"
         style="fill:#ffffff;fill-opacity:1;stroke:none;stroke-width:4.35025;stroke-linecap:square;stroke-linejoin:miter;stroke-miterlimit:4;stroke-dasharray:none;stroke-opacity:1"
         d="m -1769.6934,4071.5859 c -1.2944,0.01 -2.5893,0.029 -3.8847,0.059 v 0 c -52.5658,1.255 -103.5702,16.5358 -151.8262,35.914 -34.2192,14.4295 -67.6424,30.5258 -100.8613,47.043 a 382.92888,384.11622 0 0 0 -2.2949,41.9707 382.92888,384.11622 0 0 0 222.8222,348.9278 c 50.988,-150.1663 101.9775,-300.3331 152.9571,-450.502 -37.1618,-14.2851 -76.7832,-23.7104 -116.9122,-23.4141 z"
         transform="matrix(0.22679689,0,0,0.23314234,-73.287187,125.42614)" />
    </g>
    <g
       id="g2691"
       transform="matrix(0.58102526,0,0,0.56521144,460.61989,-547.71543)"
       style="fill:#ffffff;fill-opacity:1;stroke:none;stroke-width:1.00033;stroke-miterlimit:4;stroke-dasharray:none">
      <path
         id="path2689"
         style="fill:#ffffff;fill-opacity:1;stroke:none;stroke-width:4.35025;stroke-linecap:square;stroke-linejoin:miter;stroke-miterlimit:4;stroke-dasharray:none;stroke-opacity:1"
         d="m -1670.8105,4166.041 c -1.2945,0.01 -2.5893,0.029 -3.8848,0.059 v 0 c -52.5658,1.255 -103.5702,16.5357 -151.8262,35.914 -44.665,18.8343 -87.9771,40.5031 -131.2441,62.2481 a 343.10055,343.10055 0 0 0 -5.7422,62.5078 343.10055,343.10055 0 0 0 250.791,330.4492 c 52.9419,-155.9207 105.8853,-311.8421 158.8184,-467.7656 -37.1618,-14.2851 -76.7832,-23.7104 -116.9121,-23.4141 z"
         transform="matrix(0.22679689,0,0,0.23314234,-95.713543,103.40465)" />
    </g>
    <g
       id="g2695"
       transform="matrix(0.58102526,0,0,0.56521144,460.61989,-547.71543)"
       style="fill:#d60000;fill-opacity:1">
      <path
         style="fill:#d60000;fill-opacity:1;stroke:#000000;stroke-width:6;stroke-linecap:square;stroke-linejoin:miter;stroke-miterlimit:4;stroke-dasharray:none;stroke-opacity:1"
         d="m -459.14441,1085.6202 -56.11064,169.8819 c -46.26097,-18.8846 -79.56118,47.2087 -194.06468,20.9472 l 52.07125,-139.8814 c 107.44936,1.885 148.34966,-66.0254 198.10407,-50.9477"
         id="path2693"
         sodipodi:nodetypes="ccccc" />
    </g>
    <g
       id="g2699"
       transform="matrix(0.58102526,0,0,0.56521144,447.66242,-560.6219)"
       style="fill:#000000">
      <path
         style="fill:#000000;fill-opacity:1;stroke:#000000;stroke-width:6;stroke-linecap:square;stroke-linejoin:miter;stroke-miterlimit:4;stroke-dasharray:none;stroke-opacity:1"
         d="m -459.14441,1085.6202 -56.11064,169.8819 c -46.26097,-18.8846 -79.56118,47.2087 -194.06468,20.9472 l 52.07125,-139.8814 c 107.44936,1.885 148.34966,-66.0254 198.10407,-50.9477"
         id="path2697"
         sodipodi:nodetypes="ccccc" />
    </g>
    <circle
       id="circle2701"
       style="fill:#ffffff;stroke:#000000;stroke-width:0.131775"
       cx="193.06651"
       cy="172.0746"
       r="0.14242099" />
    <path
       style="fill:none;stroke:#000000;stroke-width:2.98828;stroke-linecap:butt;stroke-linejoin:miter;stroke-miterlimit:4;stroke-dasharray:none;stroke-opacity:1"
       d="m 193.84536,65.889512 -43.411,131.430848"
       id="path2703" />
    <path
       style="fill:none;stroke:#000000;stroke-width:2.98828;stroke-linecap:butt;stroke-linejoin:miter;stroke-miterlimit:4;stroke-dasharray:none;stroke-opacity:1"
       d="M 180.88789,52.982993 128.61506,207.76195"
       id="path2705"
       sodipodi:nodetypes="cc" />
    <g
       id="g2715"
       transform="matrix(0.42924399,0,0,0.42924399,-349.29979,-197.40226)"
       style="font-size:88.4288px;line-height:1.25;font-family:Co;-inkscape-font-specification:Co;letter-spacing:-4.42145px;fill:#ffffff;stroke-width:2.21074">
      <g
         id="g2713"
         transform="translate(-60.795229,146.9506)"
         style="fill:#ffffff">
        <path
           id="path2707"
           style="font-style:normal;font-variant:normal;font-weight:900;font-stretch:normal;font-family:Montserrat;-inkscape-font-specification:'Montserrat Heavy';fill:#ffffff;stroke-width:2.21074"
           d="m 1027.8524,571.16642 v 61.90011 h 20.7796 v -61.90011 z m 28.329,0 c 0,27.75632 0,22.02516 0,48.99958 l 8.7225,12.90053 h 22.2844 l -12.9992,-19.10067 c 3.773,-1.94542 6.6618,-4.56895 8.6661,-7.87029 2.0044,-3.30137 3.0066,-7.16235 3.0066,-11.5838 0,-4.7162 -1.1498,-8.84296 -3.4489,-12.38012 -2.2991,-3.53716 -5.5708,-6.24896 -9.8154,-8.13544 -4.2446,-1.88648 -9.2259,-2.82979 -14.9443,-2.82979 z"
           sodipodi:nodetypes="ccccccccccsssssc" />
        <path
           d="m 1118.934,634.48133 q -14.237,0 -22.1956,-7.6933 -7.9586,-7.69331 -7.9586,-21.57663 v -34.04509 h 20.8692 v 33.42609 q 0,6.80901 2.3875,9.90402 2.476,3.09501 7.0743,3.09501 4.5983,0 6.9859,-3.09501 2.476,-3.09501 2.476,-9.90402 v -33.42609 h 20.5155 v 34.04509 q 0,13.88332 -7.9586,21.57663 -7.9586,7.6933 -22.1956,7.6933 z"
           style="font-style:normal;font-variant:normal;font-weight:900;font-stretch:normal;font-family:Montserrat;-inkscape-font-specification:'Montserrat Heavy';fill:#ffffff;stroke-width:2.21074"
           id="path2709" />
        <path
           id="path2711"
           style="font-style:normal;font-variant:normal;font-weight:900;font-stretch:normal;font-family:Montserrat;-inkscape-font-specification:'Montserrat Heavy';fill:#ffffff;stroke-width:2.21074"
           d="m 1173.229,571.16642 -27.0593,61.90011 h 21.223 c 5.519,-13.93856 11.2026,-29.17167 15.9174,-41.38456 l 0.01,0.0222 7.8129,-20.53777 z m 22.207,3.86953 c -7.5584,19.97283 -11.0384,29.57902 -17.63,47.24209 h 17.2651 l 4.1559,10.78849 h 21.5769 z"
           sodipodi:nodetypes="ccccccccccccc" />
      </g>
    </g>
    <g
       id="g2729"
       transform="matrix(0.58488148,0,0,0.56514729,264.44978,-687.89835)"
       style="fill:#000000;fill-opacity:1">
      <path
         style="fill:#000000;fill-opacity:1;stroke:#000000;stroke-width:6;stroke-linecap:square;stroke-linejoin:miter;stroke-miterlimit:4;stroke-dasharray:none;stroke-opacity:1"
         d="m -120.72951,1333.8011 -56.11064,169.8819 c -46.26097,-18.8846 -79.56118,47.2087 -194.06468,20.9472 l 52.07125,-139.8814 c 107.44936,1.885 148.34966,-66.0254 198.10407,-50.9477"
         id="path2727"
         sodipodi:nodetypes="ccccc" />
    </g>
    <g
       id="g2733"
       transform="matrix(0.58102526,0,0,0.56521144,447.66242,-560.6219)"
       style="fill:#d60000;fill-opacity:1">
      <path
         style="fill:#d60000;fill-opacity:1;stroke:#000000;stroke-width:6;stroke-linecap:square;stroke-linejoin:miter;stroke-miterlimit:4;stroke-dasharray:none;stroke-opacity:1"
         d="m -459.14441,1085.6202 -56.11064,169.8819 c -46.26097,-18.8846 -79.56118,47.2087 -194.06468,20.9472 l 52.07125,-139.8814 c 107.44936,1.885 148.34966,-66.0254 198.10407,-50.9477"
         id="path2731"
         sodipodi:nodetypes="ccccc" />
    </g>
    <circle
       id="circle2735"
       style="fill:#ffffff;stroke:#000000;stroke-width:0.131775"
       cx="193.06651"
       cy="172.0746"
       r="0.14242099" />
    <path
       style="fill:none;stroke:#000000;stroke-width:4.98046;stroke-linecap:butt;stroke-linejoin:miter;stroke-miterlimit:4;stroke-dasharray:none;stroke-opacity:1"
       d="M 192.8425,64.920363 150.43436,197.32036"
       id="path2737"
       sodipodi:nodetypes="cc" />
    <path
       style="fill:none;stroke:#000000;stroke-width:4.98046;stroke-linecap:butt;stroke-linejoin:miter;stroke-miterlimit:4;stroke-dasharray:none;stroke-opacity:1"
       d="M 180.16603,51.485218 128.61506,207.76195"
       id="path2739"
       sodipodi:nodetypes="cc" />
    <path
       id="path2741"
       style="font-style:normal;font-variant:normal;font-weight:900;font-stretch:normal;font-size:88.4288px;line-height:1.25;font-family:Montserrat;-inkscape-font-specification:'Montserrat Heavy';letter-spacing:-4.42145px;fill:#ffffff;stroke-width:0.948947"
       d="m 65.803662,105.57412 v 26.57025 h 8.919559 v -26.57025 z m 12.160097,0 c 0,11.91424 0,9.45417 0,21.03278 l 3.744062,5.53747 h 9.565424 l -5.57981,-8.19885 c 1.619547,-0.83506 2.859533,-1.96119 3.719857,-3.37827 0.860375,-1.4171 1.290588,-3.07439 1.290588,-4.97227 0,-2.02441 -0.493564,-3.79579 -1.480443,-5.31409 -0.986878,-1.51831 -2.391219,-2.68234 -4.213172,-3.4921 -1.822002,-0.80975 -3.960164,-1.21467 -6.414785,-1.21467 z"
       sodipodi:nodetypes="ccccccccccsssssc" />
    <path
       d="m 104.89989,132.75167 q -6.111125,0 -9.527325,-3.3023 -3.41615,-3.30231 -3.41615,-9.26165 v -14.61364 h 8.957965 v 14.34794 q 0,2.92273 1.02483,4.25124 1.06283,1.32852 3.03659,1.32852 1.9738,0 2.99868,-1.32852 1.06278,-1.32851 1.06278,-4.25124 v -14.34794 h 8.80616 v 14.61364 q 0,5.95934 -3.4162,9.26165 -3.41615,3.3023 -9.52733,3.3023 z"
       style="font-style:normal;font-variant:normal;font-weight:900;font-stretch:normal;font-size:88.4288px;line-height:1.25;font-family:Montserrat;-inkscape-font-specification:'Montserrat Heavy';letter-spacing:-4.42145px;fill:#ffffff;stroke-width:0.948947"
       id="path2743" />
    <path
       id="path2745"
       style="font-style:normal;font-variant:normal;font-weight:900;font-stretch:normal;font-size:88.4288px;line-height:1.25;font-family:Montserrat;-inkscape-font-specification:'Montserrat Heavy';letter-spacing:-4.42145px;fill:#ffffff;stroke-width:0.948947"
       d="m 128.20572,105.57412 -11.61504,26.57025 h 9.10986 c 2.36896,-5.98304 4.80864,-12.52176 6.83245,-17.76407 l 0.005,0.01 3.35364,-8.81571 z m 9.5322,1.66098 c -3.24437,8.57321 -4.73816,12.69661 -7.56756,20.27838 h 7.41098 l 1.78385,4.63089 h 9.26176 z"
       sodipodi:nodetypes="ccccccccccccc" />
    <path
       id="path2717"
       style="fill:#000000;fill-opacity:1;stroke:#ffffff;stroke-width:3.98436;stroke-linecap:square;stroke-linejoin:miter;stroke-miterlimit:4;stroke-dasharray:none;stroke-opacity:1"
       d="M 107.08497,32.483063 C 82.720697,32.517428 59.366117,42.220464 42.150204,59.460831 24.934242,76.701198 15.264476,100.06947 15.264476,124.43374 c -5e-5,24.38693 9.687596,47.77504 26.931797,65.01918 17.244152,17.2442 40.632251,26.93186 65.019187,26.9318 24.38688,-5e-5 47.77493,-9.68769 65.01898,-26.93185 17.24415,-17.24415 26.93175,-40.63225 26.9317,-65.01913 -1e-4,-12.909 -2.71829,-25.67333 -7.97775,-37.462335 -3.80054,11.192993 -7.60054,22.386085 -11.39928,33.579615 0.0692,1.29308 0.10389,2.5878 0.10394,3.88272 5e-5,19.27534 -7.65706,37.76122 -21.28675,51.39095 -13.62968,13.62977 -32.11551,21.28688 -51.39084,21.28694 -19.275388,0 -37.761318,-7.65712 -51.391049,-21.28685 -13.629731,-13.62972 -21.286843,-32.11566 -21.286843,-51.39104 0,-19.27538 7.657112,-37.761258 21.286843,-51.390991 13.62978,-13.62978 32.115661,-21.286891 51.391049,-21.286843 11.21012,5e-5 21.88948,1.830918 31.93094,6.814618 4.12352,-1.9885 8.25695,-3.955732 12.46146,-5.76877 3.07847,-1.309214 6.25267,-2.481316 9.50267,-3.354838 C 145.35853,37.9288 126.72941,32.483063 107.21546,32.483063 Z"
       sodipodi:nodetypes="ssssssscccsssssscccss" />
    <g
       aria-label="REDE UNITÁRIA ANTIFASCISTA"
       transform="matrix(0.97873771,0.10485957,-0.08680463,1.0349414,12.145889,-23.303387)"
       id="text2856"
       style="font-size:12.2134px;line-height:1.25;font-family:Co;-inkscape-font-specification:Co;fill:#ffffff;stroke-width:0.999999"
       inkscape:transform-center-x="-0.57173294"
       inkscape:transform-center-y="65.035416">
      <path
         d="m 43.479347,185.05635 c 0.957933,0.62971 2.178621,0.58799 3.070132,-0.22883 1.125646,-1.03134 1.208587,-2.73067 0.1855,-3.84731 l -2.55772,-2.7916 -6.753872,6.18803 1.245857,1.35978 2.863642,-2.62372 0.610552,0.66638 -1.510525,4.10057 1.39437,1.52187 z m 0.369501,-1.53119 -1.262358,-1.37779 1.65695,-1.51814 1.262358,1.37779 c 0.420786,0.45927 0.390608,1.1495 -0.07766,1.57854 -0.468269,0.42904 -1.150253,0.40786 -1.57929,-0.0604 z"
         style="font-style:normal;font-variant:normal;font-weight:bold;font-stretch:normal;font-size:12.2134px;font-family:Orkney;-inkscape-font-specification:'Orkney Bold';fill:#ffffff;stroke-width:0.999999"
         id="path2158" />
      <path
         d="m 51.670106,188.04999 1.094206,-1.16729 -3.965229,-3.71696 -6.264537,6.68297 3.965229,3.71696 1.102559,-1.1762 -2.619725,-2.4557 1.478431,-1.57718 2.245478,2.10488 1.102558,-1.1762 -2.245477,-2.10488 1.486783,-1.5861 z"
         style="font-style:normal;font-variant:normal;font-weight:bold;font-stretch:normal;font-size:12.2134px;font-family:Orkney;-inkscape-font-specification:'Orkney Bold';fill:#ffffff;stroke-width:0.999999"
         id="path2160" />
      <path
         d="m 47.36058,194.3494 2.297972,1.81971 c 1.982,1.5695 4.864379,1.23472 6.433881,-0.74728 1.569502,-1.982 1.23472,-4.86438 -0.74728,-6.43388 l -2.297972,-1.81971 z m 2.437074,-0.12657 3.6925,-4.66296 0.852164,0.67481 c 1.21601,0.96293 1.352635,2.73807 0.313883,4.04983 -1.031171,1.30218 -2.790372,1.57607 -4.006382,0.61313 z"
         style="font-style:normal;font-variant:normal;font-weight:bold;font-stretch:normal;font-size:12.2134px;font-family:Orkney;-inkscape-font-specification:'Orkney Bold';fill:#ffffff;stroke-width:0.999999"
         id="path2162" />
      <path
         d="m 62.952658,196.37301 0.884909,-1.33296 -4.52801,-3.00599 -5.066268,7.63148 4.528009,3.00599 0.891664,-1.34314 -2.991539,-1.98598 1.195639,-1.80103 2.564176,1.70227 0.891663,-1.34314 -2.564176,-1.70227 1.202394,-1.8112 z"
         style="font-style:normal;font-variant:normal;font-weight:bold;font-stretch:normal;font-size:12.2134px;font-family:Orkney;-inkscape-font-specification:'Orkney Bold';fill:#ffffff;stroke-width:0.999999"
         id="path2164" />
      <path
         d="m 65.651796,206.61904 c 1.875025,0.94723 3.957995,0.48064 4.734501,-1.05644 l 2.797627,-5.53787 -1.646098,-0.83157 -2.648934,5.24353 c -0.451585,0.8939 -1.56174,1.2225 -2.510154,0.74337 -0.948413,-0.47912 -1.34264,-1.56769 -0.891054,-2.4616 l 2.648934,-5.24353 -1.646098,-0.83158 -2.797627,5.53787 c -0.776506,1.53708 0.08388,3.49059 1.958903,4.43782 z"
         style="font-style:normal;font-variant:normal;font-weight:bold;font-stretch:normal;font-size:12.2134px;font-family:Orkney;-inkscape-font-specification:'Orkney Bold';fill:#ffffff;stroke-width:0.999999"
         id="path2166" />
      <path
         d="m 79.818795,202.61254 -2.269501,5.94469 -2.112005,-7.61742 -1.757166,-0.67083 -3.267035,8.55763 1.722935,0.65776 2.273857,-5.95611 2.096239,7.62448 1.757166,0.67083 3.267035,-8.55763 z"
         style="font-style:normal;font-variant:normal;font-weight:bold;font-stretch:normal;font-size:12.2134px;font-family:Orkney;-inkscape-font-specification:'Orkney Bold';fill:#ffffff;stroke-width:0.999999"
         id="path2168" />
      <path
         d="m 79.690169,212.18604 1.765632,0.53264 2.645565,-8.76969 -1.765632,-0.53264 z"
         style="font-style:normal;font-variant:normal;font-weight:bold;font-stretch:normal;font-size:12.2134px;font-family:Orkney;-inkscape-font-specification:'Orkney Bold';fill:#ffffff;stroke-width:0.999999"
         id="path2170" />
      <path
         d="m 90.958606,205.70911 -6.329984,-1.57073 -0.38533,1.55286 2.287803,0.5677 -1.820757,7.33756 1.766231,0.43828 1.820758,-7.33757 2.275949,0.56476 z"
         style="font-style:normal;font-variant:normal;font-weight:bold;font-stretch:normal;font-size:12.2134px;font-family:Orkney;-inkscape-font-specification:'Orkney Bold';fill:#ffffff;stroke-width:0.999999"
         id="path2172" />
      <path
         d="m 96.566873,203.48755 -1.760289,-0.28466 -1.326312,1.85166 1.326245,0.21446 z m -1.395089,12.14646 1.965254,0.3178 -2.166814,-9.62944 -2.037594,-0.3295 -5.091365,8.45572 1.965254,0.3178 0.915867,-1.60873 4.087246,0.66095 z m -3.653024,-3.8817 2.140391,-3.74903 0.837633,4.23061 z"
         style="font-style:normal;font-variant:normal;font-weight:bold;font-stretch:normal;font-size:12.2134px;font-family:Orkney;-inkscape-font-specification:'Orkney Bold';fill:#ffffff;stroke-width:0.999999"
         id="path2174" />
      <path
         d="m 102.75986,212.28091 c 1.12809,-0.20389 1.98385,-1.07537 2.06692,-2.28164 0.10488,-1.52307 -1.00613,-2.81157 -2.51702,-2.91562 l -3.777204,-0.26011 -0.629303,9.13841 1.839866,0.1267 0.266821,-3.87469 0.90166,0.0621 1.73144,4.01229 2.05919,0.1418 z m -0.78751,-1.36416 -1.86424,-0.12838 0.15439,-2.24195 1.86424,0.12838 c 0.62141,0.0428 1.07523,0.56373 1.0316,1.19733 -0.0436,0.63359 -0.55239,1.08825 -1.18599,1.04462 z"
         style="font-style:normal;font-variant:normal;font-weight:bold;font-stretch:normal;font-size:12.2134px;font-family:Orkney;-inkscape-font-specification:'Orkney Bold';fill:#ffffff;stroke-width:0.999999"
         id="path2176" />
      <path
         d="m 105.37802,216.37278 1.84412,0.0192 0.0952,-9.15956 -1.84413,-0.0192 z"
         style="font-style:normal;font-variant:normal;font-weight:bold;font-stretch:normal;font-size:12.2134px;font-family:Orkney;-inkscape-font-specification:'Orkney Bold';fill:#ffffff;stroke-width:0.999999"
         id="path2178" />
      <path
         d="m 115.38521,216.06939 1.98735,-0.11676 -4.20717,-8.92866 -2.06051,0.12107 -3.13264,9.3599 1.98736,-0.11676 0.54447,-1.76929 4.13322,-0.24284 z m -4.40912,-2.9953 1.27474,-4.12451 1.73678,3.94756 z"
         style="font-style:normal;font-variant:normal;font-weight:bold;font-stretch:normal;font-size:12.2134px;font-family:Orkney;-inkscape-font-specification:'Orkney Bold';fill:#ffffff;stroke-width:0.999999"
         id="path2180" />
      <path
         d="m 127.67614,214.14067 1.95348,-0.38358 -5.37226,-8.28009 -2.02539,0.39769 -1.84244,9.69673 1.95348,-0.38357 0.30103,-1.82653 4.06276,-0.79774 z m -4.77261,-2.37368 0.70717,-4.25869 2.25301,3.67744 z"
         style="font-style:normal;font-variant:normal;font-weight:bold;font-stretch:normal;font-size:12.2134px;font-family:Orkney;-inkscape-font-specification:'Orkney Bold';fill:#ffffff;stroke-width:0.999999"
         id="path2182" />
      <path
         d="m 133.94232,202.85471 1.87666,6.08015 -6.358,-4.69697 -1.7972,0.55471 2.70151,8.75262 1.7622,-0.54391 -1.88026,-6.09182 6.34993,4.71225 1.7972,-0.55472 -2.70151,-8.75261 z"
         style="font-style:normal;font-variant:normal;font-weight:bold;font-stretch:normal;font-size:12.2134px;font-family:Orkney;-inkscape-font-specification:'Orkney Bold';fill:#ffffff;stroke-width:0.999999"
         id="path2184" />
      <path
         d="m 141.8634,199.72348 -6.02671,2.49292 0.61156,1.47846 2.17819,-0.901 2.88973,6.98602 1.68161,-0.69559 -2.88973,-6.98602 2.16691,-0.89633 z"
         style="font-style:normal;font-variant:normal;font-weight:bold;font-stretch:normal;font-size:12.2134px;font-family:Orkney;-inkscape-font-specification:'Orkney Bold';fill:#ffffff;stroke-width:0.999999"
         id="path2186" />
      <path
         d="m 146.26388,207.71269 1.66129,-0.8008 -3.97747,-8.25144 -1.66129,0.80079 z"
         style="font-style:normal;font-variant:normal;font-weight:bold;font-stretch:normal;font-size:12.2134px;font-family:Orkney;-inkscape-font-specification:'Orkney Bold';fill:#ffffff;stroke-width:0.999999"
         id="path2188" />
      <path
         d="m 150.41363,197.02974 -0.76298,-1.40631 -4.77717,2.59181 4.36821,8.05141 1.62102,-0.87947 -1.7997,-3.31718 2.70527,-1.46772 -0.76881,-1.41705 -2.70527,1.46772 -1.03672,-1.91087 z"
         style="font-style:normal;font-variant:normal;font-weight:bold;font-stretch:normal;font-size:12.2134px;font-family:Orkney;-inkscape-font-specification:'Orkney Bold';fill:#ffffff;stroke-width:0.999999"
         id="path2190" />
      <path
         d="m 159.65986,200.02167 1.66779,-1.08705 -8.08158,-5.66651 -1.72918,1.12708 1.92201,9.68127 1.66779,-1.08706 -0.40472,-1.80638 3.4686,-2.26081 z m -5.31419,-0.41418 -0.93871,-4.2137 3.46598,2.56645 z"
         style="font-style:normal;font-variant:normal;font-weight:bold;font-stretch:normal;font-size:12.2134px;font-family:Orkney;-inkscape-font-specification:'Orkney Bold';fill:#ffffff;stroke-width:0.999999"
         id="path2192" />
      <path
         d="m 164.48304,196.532 c 1.46394,-1.16135 2.12104,-2.78951 0.96728,-4.24388 -1.10063,-1.3874 -2.73162,-0.88861 -4.09138,-0.48026 -0.9549,0.28983 -1.77419,0.53444 -2.1613,0.0465 -0.34917,-0.44013 -0.16743,-1.03642 0.40666,-1.49185 0.70805,-0.5617 1.41252,-0.71522 2.24737,-0.56684 l 0.21658,-1.65285 c -1.07704,-0.15891 -2.32957,0.14878 -3.45863,1.04446 -1.37782,1.09304 -1.80592,2.69543 -0.84952,3.90103 0.91846,1.15775 2.30099,0.77811 3.58057,0.38661 1.10008,-0.34265 2.12955,-0.67605 2.66089,-0.006 0.43068,0.56254 0.11729,1.16973 -0.53335,1.68589 -0.80373,0.6376 -1.74677,0.82448 -2.65918,0.51937 l -0.21327,1.77494 c 1.23281,0.31596 2.72952,0.002 3.88728,-0.91681 z"
         style="font-style:normal;font-variant:normal;font-weight:bold;font-stretch:normal;font-size:12.2134px;font-family:Orkney;-inkscape-font-specification:'Orkney Bold';fill:#ffffff;stroke-width:0.999999"
         id="path2194" />
      <path
         d="m 171.1026,190.74995 c 0.561,-0.52662 0.94481,-1.18845 1.13982,-1.89081 l -1.40433,-1.49598 c 0.008,0.82975 -0.33423,1.55337 -0.93084,2.11343 -1.25555,1.17863 -2.88015,0.91128 -4.00863,-0.29085 -1.12848,-1.20212 -1.28437,-2.83146 -0.0288,-4.01009 0.5877,-0.55171 1.29698,-0.84899 2.15962,-0.80445 l -1.40433,-1.49598 c -0.72163,0.14137 -1.39801,0.49153 -1.959,1.01816 -1.94121,1.82228 -1.82133,4.59103 -0.0409,6.48771 1.78049,1.89669 4.53614,2.19114 6.47735,0.36886 z"
         style="font-style:normal;font-variant:normal;font-weight:bold;font-stretch:normal;font-size:12.2134px;font-family:Orkney;-inkscape-font-specification:'Orkney Bold';fill:#ffffff;stroke-width:0.999999"
         id="path2196" />
      <path
         d="m 173.44708,188.2352 1.26773,-1.33941 -6.65268,-6.29669 -1.26774,1.33941 z"
         style="font-style:normal;font-variant:normal;font-weight:bold;font-stretch:normal;font-size:12.2134px;font-family:Orkney;-inkscape-font-specification:'Orkney Bold';fill:#ffffff;stroke-width:0.999999"
         id="path2198" />
      <path
         d="m 177.96854,183.37818 c 1.20146,-1.43121 1.51889,-3.15804 0.097,-4.35164 -1.35637,-1.13864 -2.85429,-0.32307 -4.10461,0.34953 -0.87743,0.47535 -1.63107,0.87921 -2.10814,0.47872 -0.43029,-0.36122 -0.37176,-0.98183 0.0994,-1.54309 0.5811,-0.69221 1.2405,-0.98382 2.08815,-1.00578 l -0.1191,-1.66272 c -1.08704,0.0602 -2.25248,0.61268 -3.1791,1.71648 -1.13078,1.34702 -1.22903,3.00271 -0.0504,3.99214 1.13187,0.95017 2.41026,0.30113 3.5854,-0.3389 1.00908,-0.55618 1.95084,-1.08916 2.60564,-0.53947 0.53469,0.46481 0.34936,1.12249 -0.18462,1.75858 -0.65963,0.78576 -1.54607,1.15787 -2.50112,1.04182 l 0.14682,1.78167 c 1.27112,0.0625 2.67446,-0.54547 3.62463,-1.67734 z"
         style="font-style:normal;font-variant:normal;font-weight:bold;font-stretch:normal;font-size:12.2134px;font-family:Orkney;-inkscape-font-specification:'Orkney Bold';fill:#ffffff;stroke-width:0.999999"
         id="path2200" />
      <path
         d="m 176.69932,169.66163 -3.81371,5.29071 1.29791,0.93557 1.37836,-1.91218 6.13286,4.42076 1.06412,-1.47625 -6.13285,-4.42076 1.37122,-1.90227 z"
         style="font-style:normal;font-variant:normal;font-weight:bold;font-stretch:normal;font-size:12.2134px;font-family:Orkney;-inkscape-font-specification:'Orkney Bold';fill:#ffffff;stroke-width:0.999999"
         id="path2202" />
      <path
         d="m 187.47375,169.4415 1.02464,-1.70685 -9.74572,-1.5627 -1.06236,1.76968 5.96147,7.86652 1.02464,-1.70685 -1.15378,-1.44762 2.131,-3.54983 z m -4.96041,1.95101 -2.68658,-3.37917 4.23925,0.79272 z"
         style="font-style:normal;font-variant:normal;font-weight:bold;font-stretch:normal;font-size:12.2134px;font-family:Orkney;-inkscape-font-specification:'Orkney Bold';fill:#ffffff;stroke-width:0.999999"
         id="path2204" />
    </g>
    <circle
       style="fill:none;fill-opacity:1;stroke:none;stroke-width:5.16265;stroke-linecap:butt;stroke-linejoin:miter;stroke-miterlimit:4;stroke-dasharray:none;stroke-opacity:1;paint-order:normal"
       id="path2862"
       cx="-1.5704815"
       cy="164.24496"
       r="91.951698"
       transform="matrix(-0.76378224,0.64547401,0.64547401,0.76378224,0,0)" />
    <path
       id="path2152"
       style="fill:#000000;fill-opacity:1;stroke:#ffffff;stroke-width:3.98436;stroke-linecap:square;stroke-linejoin:miter;stroke-miterlimit:4;stroke-dasharray:none;stroke-opacity:1"
       d="m 421.18095,32.483063 c -24.36427,0.03437 -47.71885,9.737401 -64.93476,26.977768 -17.21596,17.240367 -26.88573,40.608639 -26.88573,64.972909 -5e-5,24.38693 9.6876,47.77504 26.9318,65.01918 17.24415,17.2442 40.63225,26.93186 65.01918,26.9318 24.38688,-5e-5 47.77493,-9.68769 65.01898,-26.93185 17.24415,-17.24415 26.93175,-40.63225 26.9317,-65.01913 -10e-5,-12.909 -2.71829,-25.67333 -7.97775,-37.462335 -3.80054,11.192993 -7.60054,22.386085 -11.39928,33.579615 0.0692,1.29308 0.10389,2.5878 0.10394,3.88272 5e-5,19.27534 -7.65706,37.76122 -21.28675,51.39095 -13.62968,13.62977 -32.11551,21.28688 -51.39084,21.28694 -19.27538,0 -37.76131,-7.65712 -51.39105,-21.28685 -13.62973,-13.62972 -21.28684,-32.11566 -21.28684,-51.39104 0,-19.27538 7.65711,-37.761258 21.28684,-51.390991 13.62978,-13.62978 32.11567,-21.286891 51.39105,-21.286843 11.21012,5e-5 21.88948,1.830918 31.93094,6.814618 4.12352,-1.9885 8.25695,-3.955732 12.46146,-5.76877 3.07847,-1.309214 6.25267,-2.481316 9.50267,-3.354838 C 459.45451,37.9288 440.82539,32.483063 421.31144,32.483063 Z"
       sodipodi:nodetypes="ssssssscccsssssscccss" />
    <text
       xml:space="preserve"
       style="font-size:12.2134px;line-height:1.25;font-family:Co;-inkscape-font-specification:Co;fill:#ffffff;stroke-width:0.999999"
       id="text2156"
       y="-8424.9053"
       x="8969.4521"
       transform="matrix(0.97873771,0.10485957,-0.08680463,1.0349414,326.24187,-23.303387)"
       inkscape:transform-center-x="-0.57173294"
       inkscape:transform-center-y="65.035416"><textPath
         xlink:href="#path2862"
         id="textPath2154"
         style="font-style:normal;font-variant:normal;font-weight:bold;font-stretch:normal;font-size:12.2134px;font-family:Orkney;-inkscape-font-specification:'Orkney Bold';fill:#ffffff;stroke-width:0.999999">REDE UNITÁRIA ANTIFASCISTA</textPath></text>
  </g>
</svg>
